<svg xmlns="http://www.w3.org/2000/svg" viewBox="0 0 900 260" font-family="'Ubuntu', 'Arial Black', 'Helvetica', sans-serif">
  <!-- DEER (lewa czesc) -->
  <text x="0" y="128" font-size="108" font-weight="800" letter-spacing="4" fill="#1a1a1a">DEER</text>
  <!-- Signet (srodek) - oryginalny z deerdesign.pl, przeskalowany -->
  <g transform="translate(350, 28) scale(0.34)" fill="#1a1a1a">
    <path d="M467.089 12.444v70.519l-64.355 32.148V45.63l-24.911 11.407v70.519l-59.165 29.037c-4.152 2.074-7.266 6.222-7.266 11.407v57.037L246 257.185l-65.392-32.148V168c0-5.185-3.114-9.333-7.266-11.407l-59.165-29.037V57.037L89.266 44.593v70.518L24.91 82.963V12.444L0 0v90.222c0 4.148 3.114 9.334 7.266 11.408l82 41.481v37.333L42.557 157.63c-4.152-2.074-8.304-2.074-12.456 1.037-4.152 2.074-6.227 6.222-6.227 10.37v94.37c0 4.149 3.113 9.334 7.265 11.408l58.127 29.037V392c0 5.185 3.114 9.333 7.266 11.407l59.164 29.037v102.667c0 5.185 3.114 9.333 7.266 11.408L246 588l83.038-41.481c4.152-2.075 7.266-6.223 7.266-11.408V432.444l59.164-29.037c4.152-2.074 7.266-6.222 7.266-11.407v-88.148l58.127-29.037c4.152-2.074 7.266-6.222 7.266-11.408v-94.37c0-4.148-2.076-8.296-6.228-10.37-3.114-2.074-8.304-2.074-12.456-1.037l-46.709 22.814v-37.333l82-41.481c4.152-2.075 7.266-6.223 7.266-11.408V1.037zm-64.355 262.371v-67.408l39.443-19.703v67.407zm-23.873 40.444v68.445l-41.519 20.74V336zM312.43 495.704v31.111l-65.392 32.148-65.392-32.148v-31.111l65.392 32.148zM175.418 316.296l-59.165-29.037v-67.407l130.785 65.333 130.785-65.333v67.407l-59.165 29.037c-4.152 2.074-7.266 6.223-7.266 11.408v140L246 499.852l-65.392-32.148v-140c2.076-4.148-1.038-8.297-5.19-11.408m-58.127-123.407v-37.333l40.481 20.74v37.334zm40.481 142.074v68.444l-40.481-20.74v-68.445zm221.089-179.407v37.333l-41.519 20.741v-37.334zM92.38 208.444v67.408l-39.443-19.704v-67.407z"/>
  </g>
  <!-- DESIGN (prawa czesc) -->
  <text x="540" y="128" font-size="108" font-weight="800" letter-spacing="4" fill="#1a1a1a">DESIGN</text>
  <!-- Register mark ® -->
  <text x="884" y="76" font-size="22" font-weight="500" fill="#1a1a1a">®</text>
  <!-- Tagline "PRACOWNIA ARCHITEKTURY WNĘTRZ" pod DESIGN -->
  <g font-size="28" font-weight="600" letter-spacing="4" fill="#1a1a1a">
    <text x="544" y="180">PRACOWNIA</text>
    <text x="544" y="212">ARCHITEKTURY</text>
    <text x="544" y="244">WNĘTRZ</text>
  </g>
</svg>
