<?xml version="1.0" encoding="UTF-8"?>
<svg id="Warstwa_1" data-name="Warstwa 1" xmlns="http://www.w3.org/2000/svg" width="138" height="115" viewBox="0 0 138 115">
  <g>
    <path d="M20.92,63.2c0,.82-.15,1.6-.46,2.33-.31.73-.76,1.39-1.35,1.96-.6.57-1.27,1.01-2.02,1.32-.75.31-1.53.46-2.36.46s-1.63-.15-2.38-.46-1.42-.75-2-1.32c-.59-.57-1.04-1.23-1.34-1.95-.31-.73-.46-1.51-.46-2.34s.15-1.61.46-2.34c.31-.73.75-1.39,1.34-1.97.59-.57,1.26-1.01,2.01-1.31.75-.3,1.54-.45,2.38-.45s1.62.15,2.37.45c.75.3,1.41.74,2,1.31.59.58,1.04,1.24,1.35,1.98.31.73.46,1.51.46,2.33ZM18.96,63.2c0-.58-.11-1.14-.32-1.67-.21-.53-.52-1-.92-1.41-.39-.41-.84-.72-1.36-.94-.51-.22-1.06-.33-1.62-.33s-1.11.11-1.62.32c-.51.22-.97.53-1.37.94-.4.41-.71.87-.92,1.4-.21.53-.32,1.09-.32,1.68s.11,1.14.32,1.66c.21.52.52.99.92,1.4.4.41.86.72,1.37.94.51.22,1.05.32,1.63.32s1.1-.11,1.61-.32c.51-.22.97-.53,1.37-.94.4-.41.71-.88.92-1.4.21-.52.32-1.08.32-1.66Z" style="fill: #333; stroke-width: 0px;"/>
    <path d="M25.65,66.65l1.5-.7c.14.52.4.91.78,1.18.38.27.86.41,1.45.41.56,0,1-.16,1.33-.47.33-.31.49-.73.49-1.25,0-.68-.56-1.29-1.69-1.82-.16-.08-.28-.14-.36-.17-1.28-.62-2.12-1.18-2.55-1.69-.42-.5-.64-1.12-.64-1.85,0-.94.32-1.71.96-2.29.64-.58,1.48-.88,2.52-.88.85,0,1.57.16,2.14.49.57.33.97.8,1.19,1.42l-1.47.76c-.23-.36-.49-.63-.76-.8-.28-.17-.59-.25-.95-.25-.51,0-.91.13-1.21.4-.3.26-.45.62-.45,1.06,0,.7.65,1.34,1.96,1.94.1.05.18.08.24.11,1.14.53,1.93,1.04,2.36,1.55.43.5.64,1.13.64,1.89,0,1.1-.35,1.97-1.04,2.61-.69.65-1.62.97-2.8.97-.99,0-1.79-.23-2.42-.68-.63-.45-1.04-1.1-1.24-1.94Z" style="fill: #333; stroke-width: 0px;"/>
    <path d="M38.47,68.96v-11.57h1.88v11.57h-1.88Z" style="fill: #333; stroke-width: 0px;"/>
    <path d="M46.29,68.96v-11.57h6.46v1.6h-4.58v2.9h4.58v1.65h-4.58v3.74h4.58v1.68h-6.46Z" style="fill: #333; stroke-width: 0px;"/>
    <path d="M58.15,68.96v-11.57h2.54c1.65,0,2.81.08,3.48.25.67.17,1.26.44,1.77.83.67.51,1.18,1.17,1.52,1.97.35.8.52,1.71.52,2.74s-.17,1.94-.52,2.73c-.35.79-.85,1.45-1.52,1.96-.51.39-1.08.67-1.73.83-.65.17-1.65.25-3.02.25h-3.04ZM60.03,67.26h1.58c.87,0,1.52-.06,1.96-.17.43-.12.81-.31,1.13-.58.44-.37.77-.84.98-1.4.22-.56.33-1.2.33-1.94s-.11-1.38-.33-1.94c-.22-.56-.55-1.02-.98-1.4-.33-.27-.72-.47-1.17-.58-.46-.12-1.17-.17-2.14-.17h-1.36v8.19Z" style="fill: #333; stroke-width: 0px;"/>
    <path d="M73.37,68.96v-11.57h1.88v9.89h4.21v1.68h-6.09Z" style="fill: #333; stroke-width: 0px;"/>
    <path d="M84.21,68.96v-11.57h6.46v1.6h-4.58v2.9h4.58v1.65h-4.58v3.74h4.58v1.68h-6.46Z" style="fill: #333; stroke-width: 0px;"/>
  </g>
  <g>
    <path d="M115.86,68.96v-11.57h6.46v1.6h-4.58v2.89h4.58v1.65h-4.58v5.44h-1.88Z" style="fill: #333; stroke-width: 0px;"/>
    <path d="M127.3,58.23c0-.29.11-.54.32-.75.21-.21.47-.32.76-.32s.56.1.76.3c.2.2.3.46.3.76s-.1.56-.31.77c-.21.21-.46.31-.76.31s-.55-.11-.76-.32-.32-.47-.32-.76ZM127.53,68.96v-7.49h1.71v7.49h-1.71Z" style="fill: #333; stroke-width: 0px;"/>
  </g>
  <g>
    <path d="M84.62,17.5c-1.19,4.61-.78,11.74,1.35,17.63,1.94,5.37,8.71,11.17,13.86,12.49,10.64,2.74,19.45-.09,24.76-9.69,2.29-4.51,3.24-9.86.58-12.19-3.97-3.47-10.51-1.86-14.12.97-19.29,15.1-5.99,61.41-.98,68.78" style="fill: none; stroke-width: 0px;"/>
    <path d="M83.95,27.18c.33,5.25,1.46,10.03,4.77,14.68,5.53,7.78,15.59,10.21,24.59,7.39,4.13-1.29,7.58-3.81,10.01-7.32,2.71-3.92,3.4-8.13,3.51-12.76.04-1.69-.04-3.29-.99-4.75-1.25-1.93-4.03-2.56-6.15-2.65-4.21-.17-8.08,2.11-10.9,5.06-4.51,4.72-6.75,11.3-7.6,17.62-.92,6.76-1.01,11.99-.37,18.77.65,6.81,2.47,15.44,4.35,22.01,1.17,4.11,2.43,8.68,4.83,12.28-.59-.89.73-3.09.12-4.01-2.53-3.81-3.81-8.68-5.04-13.02-2-7.09-3.13-12.08-3.87-21.73-.15-1.99.11-9.97.28-11.13.5-3.5,1.42-6.95,2.86-10.19,3.01-6.75,9.89-13.41,17.91-11.24,1.34.36,2.59,1.17,3.47,2.24.4.49.6,1.11.77,1.7.08.33.14.66.18.99-.3-2.11,0-.99-.22-.03-.72,3.36-2.5,6.42-4.69,9.02-3.81,4.52-9.38,6.59-15.2,6.5-6.74-.1-12.43-2.92-16.96-7.85-2.37-2.58-3.69-5.52-4.55-8.88-.51-1.98-.78-4.01-.95-6.04-.05-.63-.07-1.26-.08-1.89-.08,1.57-.08,1.82,0,.77.08-1.06-.31.67-.07,4.47Z" style="fill: #f05a28; stroke-width: 0px;"/>
  </g>
</svg>