<?xml version="1.0" encoding="UTF-8"?>
<svg id="Warstwa_1" data-name="Warstwa 1" xmlns="http://www.w3.org/2000/svg" width="116.97" height="115" viewBox="0 0 116.97 115">
  <g id="Group_5339" data-name="Group 5339">
    <path id="Path_84190" data-name="Path 84190" d="M21.08,72.17c-6.57,0-12.16,3.16-12.16,10.17s5.55,10.17,12.16,10.17,12.21-3.16,12.21-10.17-5.64-10.17-12.21-10.17ZM21.08,88.66c-4.86,0-7.59-2.53-7.59-6.32s2.72-6.23,7.59-6.23,7.59,2.38,7.59,6.23-2.72,6.32-7.59,6.32h0Z" style="fill: #000; stroke-width: 0px;"/>
    <path id="Path_84191" data-name="Path 84191" d="M35.47,76.54h13.86l-14.5,12.31v3.31h21.5v-3.89h-14.4l14.4-12.26v-3.45h-20.87v3.99Z" style="fill: #000; stroke-width: 0px;"/>
    <path id="Path_84192" data-name="Path 84192" d="M70.3,72.17c-6.57,0-12.16,3.16-12.16,10.17s5.55,10.17,12.16,10.17,12.21-3.16,12.21-10.17-5.64-10.17-12.21-10.17ZM70.3,88.66c-4.86,0-7.59-2.53-7.59-6.32s2.72-6.23,7.59-6.23,7.59,2.38,7.59,6.23-2.72,6.32-7.59,6.32h0Z" style="fill: #000; stroke-width: 0px;"/>
    <path id="Path_84193" data-name="Path 84193" d="M103.63,72.56v13.43l-12.45-13.43h-5.16v19.6h4.43v-14.01l13.09,14.01h4.52v-19.6h-4.43Z" style="fill: #000; stroke-width: 0px;"/>
    <path id="Path_84194" data-name="Path 84194" d="M58.92,62.78c11.12,0,20.14-9.02,20.14-20.14,0-11.12-9.02-20.14-20.14-20.14s-20.14,9.02-20.14,20.14h0c0,11.12,9.02,20.13,20.14,20.14ZM64.76,29.56c.08-.22.22-.42.39-.58l.05-.05s.05-.02.05-.05c0,0,0,0,0,0,.13-.14.3-.24.49-.29.04-.04.09-.06.15-.05.05,0,.11-.01.15-.05.12-.04.26-.06.39-.05.08-.02.16-.04.24-.05h.39c.12,0,.23.01.34.05.1,0,.19.05.29.05.19.04.37.11.54.19.14.04.27.11.39.19.07.01.14.05.19.1.15.1.34.19.49.29.32.21.63.44.92.68.17.13.34.28.49.44,0,.05.05.05.05.1l.05.05.15.15c.21.23.4.48.58.73.23.33.44.67.63,1.02.11.25.21.51.29.78.09.24.15.48.19.73.07.44.04.89-.1,1.31-.08.25-.21.48-.39.68-.1.1-.22.18-.34.24-.36.2-.76.3-1.17.29-1.22,0-2.77-.73-4.04-1.99-.32-.31-.59-.65-.83-1.02-.23-.33-.44-.67-.63-1.02-.17-.32-.3-.67-.39-1.02-.22-.6-.22-1.25,0-1.85h0ZM58.92,28.29h.49c1.09.09,1.95.95,2.04,2.04,0,.1.05.19.05.34l.05.19c.05.19.05.34.1.54.08.32.2.63.34.92v.1l.39.78.29.58v.05l.68.97c.4.55.84,1.07,1.31,1.56,1.68,1.74,3.88,2.87,6.27,3.21l.15.05h.05c1.26.19,1.95.83,2.14,1.85.04.39.06.78.05,1.17.01,7.94-6.41,14.39-14.35,14.4-7.94.01-14.39-6.41-14.4-14.35-.01-7.94,6.41-14.39,14.35-14.4h0Z" style="fill: #000; stroke-width: 0px;"/>
    <path id="Path_84195" data-name="Path 84195" d="M86.99,59.96c-1.23-.02-2.37-.64-3.06-1.65l-2.29,1.9c1.37,1.62,3.38,2.56,5.5,2.58,3.41,0,6.18-2.33,6.18-5.84-.02-2.42-1.56-4.56-3.84-5.35l3.02-3.7v-1.9h-10.02v2.82h5.55l-3.11,3.65v1.9c.62-.3,1.3-.47,1.99-.49,1.7-.09,3.16,1.21,3.26,2.91,0,.03,0,.07,0,.1-.05,1.71-1.45,3.06-3.16,3.06Z" style="fill: #000; stroke-width: 0px;"/>
  </g>
</svg>